# xmcd
#
# Track frame offsets:
#	150
#	16043
#	31245
#	44087
#	60656
#	74484
#	89866
#	108476
#	123532
#	139795
#	156109
#	173616
#	188699
#
# Disc length: 2742 seconds
#
# Revision: 2
# Processed by: cddbd v1.5.2PL0 Copyright (c) Steve Scherf et al.
# Submitted via: audiograbber 1.83.01
#
DISCID=b40ab40d
DTITLE=Various Artist - CDX Volume 635 (June 20, 2016)
DYEAR=2016
DGENRE=Country
TTITLE0=Mickey Guyton - Heartbreak Song
TTITLE1=Dylan Scott - My Girl
TTITLE2=Mark Chesnutt - I've Got A Quarter In My Pocket
TTITLE3=Mark Chesnutt - Oughta Miss Me By Now
TTITLE4=David Shelby - Back To Us
TTITLE5=Layce Whitworth - But You Oughta
TTITLE6=Sarah Dunn Band - Dirty
TTITLE7=Stephanie Quayle - Drinking With Dolly 
TTITLE8=Macy Martin - Heart Sleeve Soul
TTITLE9=Dennie Hall - Hollerwood
TTITLE10=Max Lisa - Taylor Swift (Smile)
TTITLE11=Libby Koch - You Don't Live Here Anymore
TTITLE12=Jerry Don - You Should Have Been There
EXTD=
EXTT0=
EXTT1=
EXTT2=
EXTT3=
EXTT4=
EXTT5=
EXTT6=
EXTT7=
EXTT8=
EXTT9=
EXTT10=
EXTT11=
EXTT12=
PLAYORDER=
